<?xml version="1.0" encoding="utf-8"?>
<!-- Generator: Adobe Illustrator 22.1.0, SVG Export Plug-In . SVG Version: 6.00 Build 0)  -->
<svg version="1.1" id="Layer_1" xmlns="http://www.w3.org/2000/svg" xmlns:xlink="http://www.w3.org/1999/xlink" x="0px" y="0px"
	 viewBox="0 0 394.1 460" style="enable-background:new 0 0 394.1 460;" xml:space="preserve">
<style type="text/css">
	.st0{fill:#F5F5F5;}
</style>
<path class="st0" d="M394.1,0c-125.3,0-250.7,0-376,0c-7.3,9.9-19.3,29.5-18,54c2.5,46.6,51.5,77.8,87,88c4.8,1.4,8.7,2.2,12.6,2.7
	c27.2,3.1,46.5,0.5,68.4-2.7c32.5-4.7,48.7-7.1,66-6c13,0.8,37.4,2.7,64,17c10.3,5.6,38,21,54,52c14.1,27.4,10,71,6,95
	c-3.7,22.3-16,74,0,111s29.8,43.7,36,49C394.1,306.7,394.1,153.3,394.1,0z"/>
</svg>
